<?xml version="1.0" encoding="utf-8"?>
<svg xml:space="preserve" viewBox="0 0 100 100" y="0" x="0" xmlns="http://www.w3.org/2000/svg" id="Layer_1" version="1.1" style="height: 100%; width: 100%; background: none; shape-rendering: auto;" width="207px" height="207px"><g class="ldl-scale" style="transform-origin: 50% 50%; transform: rotate(0deg) scale(0.8, 0.8);"><g class="ldl-ani"><g class="ldl-layer"><g class="ldl-ani"><g><g class="ldl-layer"><g class="ldl-ani" style="transform-origin: 50px 50px; transform: matrix(1, 0, 0, 1, 0, 14.925); opacity: 0.05; animation: 0.5s linear 0s 1 normal forwards running float-btt-in-94c9933d-5e8a-41d4-8635-107f9e4d5275;"><path fill="#d65a62" d="M85.7 31.9H14.3c-2.4 0-4.3-1.9-4.3-4.3s1.9-4.3 4.3-4.3h71.5c2.4 0 4.3 1.9 4.3 4.3-.1 2.4-2 4.3-4.4 4.3z" style="fill: rgb(229, 9, 20);"></path></g></g></g></g></g><g class="ldl-layer"><g class="ldl-ani"><g><g class="ldl-layer"><g class="ldl-ani" style="transform-origin: 50px 50px; transform: matrix(1, 0, 0, 1, 0, 14.925); opacity: 0.05; animation: 0.5s linear 0.0625s 1 normal forwards running float-btt-in-94c9933d-5e8a-41d4-8635-107f9e4d5275;"><path fill="#d65a62" d="M85.7 46.8H14.3c-2.4 0-4.3-1.9-4.3-4.3s1.9-4.3 4.3-4.3h71.5c2.4 0 4.3 1.9 4.3 4.3-.1 2.4-2 4.3-4.4 4.3z" style="fill: rgb(229, 9, 20);"></path></g></g></g></g></g><g class="ldl-layer"><g class="ldl-ani"><g><g class="ldl-layer"><g class="ldl-ani" style="transform-origin: 50px 50px; transform: matrix(1, 0, 0, 1, 0, 14.925); opacity: 0.05; animation: 0.5s linear 0.125s 1 normal forwards running float-btt-in-94c9933d-5e8a-41d4-8635-107f9e4d5275;"><path fill="#d65a62" d="M85.7 61.7H14.3c-2.4 0-4.3-1.9-4.3-4.3s1.9-4.3 4.3-4.3h71.5c2.4 0 4.3 1.9 4.3 4.3-.1 2.4-2 4.3-4.4 4.3z" style="fill: rgb(229, 9, 20);"></path></g></g></g></g></g><g class="ldl-layer"><g class="ldl-ani"><g><g class="ldl-layer"><g class="ldl-ani" style="transform-origin: 50px 50px; transform: matrix(1, 0, 0, 1, 0, 14.925); opacity: 0.05; animation: 0.5s linear 0.1875s 1 normal forwards running float-btt-in-94c9933d-5e8a-41d4-8635-107f9e4d5275;"><path fill="#d65a62" d="M85.7 76.7H14.3c-2.4 0-4.3-1.9-4.3-4.3s1.9-4.3 4.3-4.3h71.5c2.4 0 4.3 1.9 4.3 4.3-.1 2.4-2 4.3-4.4 4.3z" style="fill: rgb(229, 9, 20);"></path></g></g></g></g></g><metadata xmlns:d="https://loading.io/stock/"><d:name>menu</d:name><d:tags>hamburger,bars,stripe,navigation,navbar,dropdown,menu,web application</d:tags><d:license>free</d:license><d:slug>q66yng</d:slug></metadata></g></g><style id="float-btt-in-94c9933d-5e8a-41d4-8635-107f9e4d5275" data-anikit="">@keyframes float-btt-in-94c9933d-5e8a-41d4-8635-107f9e4d5275
{
  0% {
    animation-timing-function: cubic-bezier(0.2242,0.7499,0.3142,0.8148);
    transform: translate(0px,14.925px) rotate(0deg) scale(1,1) skewX(0deg) skewY(0deg);
    opacity: 0.05;
  }
  100% {
    transform: translate(0px,0px) rotate(0deg) scale(1,1) skewX(0deg) skewY(0deg);
    opacity: 1;
  }
}</style><!-- [ldio] generated by https://loading.io/ --></svg>